<svg xmlns="http://www.w3.org/2000/svg" xmlns:svg="http://www.w3.org/2000/svg" xmlns:xlink="http://www.w3.org/1999/xlink" id="svg2" width="45.783" height="50.117" version="1.1" viewBox="0 0 45.783 50.117"><defs id="defs4"><linearGradient id="linearGradient4346"><stop id="stop4348" offset="0" stop-color="#cccccf" stop-opacity="1"/><stop id="stop4350" offset="1" stop-color="#888" stop-opacity="1"/></linearGradient><linearGradient id="linearGradient4338"><stop id="stop4340" offset="0" stop-color="#888" stop-opacity="1"/><stop id="stop4342" offset="1" stop-color="#cccccf" stop-opacity="1"/></linearGradient><linearGradient id="linearGradient4330"><stop id="stop4332" offset="0" stop-color="#eee" stop-opacity="1"/><stop id="stop4334" offset="1" stop-color="#aaa" stop-opacity="1"/></linearGradient><linearGradient id="linearGradient4322"><stop id="stop4324" offset="0" stop-color="#eee" stop-opacity="1"/><stop id="stop4326" offset="1" stop-color="#aaa" stop-opacity="1"/></linearGradient><linearGradient id="linearGradient4314"><stop id="stop4316" offset="0" stop-color="#eee" stop-opacity="1"/><stop id="stop4318" offset="1" stop-color="#aaa" stop-opacity="1"/></linearGradient><linearGradient id="linearGradient4298"><stop id="stop4300" offset="0" stop-color="#aaa" stop-opacity="1"/><stop id="stop4302" offset="1" stop-color="#eee" stop-opacity="1"/></linearGradient><linearGradient id="linearGradient4290"><stop id="stop4292" offset="0" stop-color="#aaa" stop-opacity="1"/><stop id="stop4294" offset="1" stop-color="#eee" stop-opacity="1"/></linearGradient><linearGradient id="linearGradient4206"><stop id="stop4208" offset="0" stop-color="#fff" stop-opacity="1"/><stop id="stop4210" offset="1" stop-color="#b0b0b0" stop-opacity="1"/></linearGradient><linearGradient id="linearGradient4209"><stop id="stop4211" offset="0" stop-color="#fff" stop-opacity="1"/><stop id="stop4213" offset="1" stop-color="#fff" stop-opacity="0"/></linearGradient><linearGradient id="linearGradient4163"><stop id="stop4165" offset="0" stop-color="#ff7004" stop-opacity="1"/><stop id="stop4167" offset="1" stop-color="#ba4704" stop-opacity="1"/></linearGradient><linearGradient id="linearGradient4153"><stop id="stop4155" offset="0" stop-color="#d70016" stop-opacity="1"/><stop id="stop4157" offset="1" stop-color="#8d0016" stop-opacity="1"/></linearGradient><linearGradient id="linearGradient4143"><stop id="stop4145" offset="0" stop-color="#d000d0" stop-opacity="1"/><stop id="stop4147" offset="1" stop-color="#760076" stop-opacity="1"/></linearGradient><linearGradient id="linearGradient4133"><stop id="stop4135" offset="0" stop-color="#1476e6" stop-opacity="1"/><stop id="stop4137" offset="1" stop-color="#143e9a" stop-opacity="1"/></linearGradient><linearGradient id="linearGradient4123"><stop id="stop4125" offset="0" stop-color="#17b414" stop-opacity="1"/><stop id="stop4127" offset="1" stop-color="#176314" stop-opacity="1"/></linearGradient><linearGradient id="linearGradient4105"><stop id="stop4107" offset="0" stop-color="#f7f10e" stop-opacity="1"/><stop id="stop4109" offset="1" stop-color="#c58907" stop-opacity="1"/></linearGradient><filter id="filter4107" color-interpolation-filters="sRGB"><feGaussianBlur id="feGaussianBlur4109" stdDeviation="9"/></filter><filter id="filter3902"><feGaussianBlur id="feGaussianBlur3904" stdDeviation="9"/></filter><linearGradient id="linearGradient3885" x1="372.859" x2="318.297" y1="593.388" y2="726.388" gradientTransform="translate(1.8752155,-533.76621)" gradientUnits="userSpaceOnUse" xlink:href="#linearGradient4163"/><linearGradient id="linearGradient3907" x1="277.627" x2="454.048" y1="637.059" y2="683.489" gradientTransform="rotate(60,717.31749,524.50708)" gradientUnits="userSpaceOnUse" xlink:href="#linearGradient4105"/><linearGradient id="linearGradient3911" x1="253.838" x2="401.186" y1="725.269" y2="612.484" gradientTransform="rotate(120,409.14743,523.42443)" gradientUnits="userSpaceOnUse" xlink:href="#linearGradient4123"/><linearGradient id="linearGradient3915" x1="326.125" x2="342.125" y1="701.766" y2="581.766" gradientTransform="rotate(180,255.0624,522.8831)" gradientUnits="userSpaceOnUse" xlink:href="#linearGradient4133"/><linearGradient id="linearGradient3919" x1="456.976" x2="273.627" y1="694.418" y2="643.987" gradientTransform="rotate(-120,100.97736,522.34178)" gradientUnits="userSpaceOnUse" xlink:href="#linearGradient4143"/><linearGradient id="linearGradient3923" x1="432.115" x2="263.694" y1="650.053" y2="710.341" gradientTransform="rotate(-60,-207.1927,521.25913)" gradientUnits="userSpaceOnUse" xlink:href="#linearGradient4153"/><filter id="filter3999" width="1.204" height="1.282" x="-.102" y="-.141"><feGaussianBlur id="feGaussianBlur4001" stdDeviation="9.267"/></filter><filter id="filter4007" width="1.239" height="1.214" x="-.119" y="-.107"><feGaussianBlur id="feGaussianBlur4009" stdDeviation="9.267"/></filter><filter id="filter4011" width="1.204" height="1.282" x="-.102" y="-.141"><feGaussianBlur id="feGaussianBlur4013" stdDeviation="9.267"/></filter><filter id="filter4015" width="1.251" height="1.221" x="-.125" y="-.11"><feGaussianBlur id="feGaussianBlur4017" stdDeviation="9.267"/></filter><filter id="filter4019" width="1.239" height="1.214" x="-.119" y="-.107"><feGaussianBlur id="feGaussianBlur4021" stdDeviation="9.267"/></filter><linearGradient id="linearGradient4212" x1="256" x2="256" y1="224" y2="288" gradientUnits="userSpaceOnUse" xlink:href="#linearGradient4206"/><filter id="filter4245" width="1.251" height="1.221" x="-.126" y="-.111"><feGaussianBlur id="feGaussianBlur4247" stdDeviation="9.291"/></filter><filter id="filter4257" width="1.235" height="1.235" x="-.118" y="-.118"><feGaussianBlur id="feGaussianBlur4259" stdDeviation="3.136"/></filter><filter id="filter4308"><feGaussianBlur id="feGaussianBlur4310" stdDeviation="4.831"/></filter><filter id="filter4312"><feGaussianBlur id="feGaussianBlur4314" stdDeviation="4.819"/></filter><filter id="filter4320"><feGaussianBlur id="feGaussianBlur4322" stdDeviation="4.825"/></filter><filter id="filter4328"><feGaussianBlur id="feGaussianBlur4330" stdDeviation="5.057"/></filter><filter id="filter4336"><feGaussianBlur id="feGaussianBlur4338" stdDeviation="5.057"/></filter><filter id="filter4344"><feGaussianBlur id="feGaussianBlur4346" stdDeviation="4.822"/></filter><filter id="filter4348"><feGaussianBlur id="feGaussianBlur4350" stdDeviation="1.758"/></filter><linearGradient id="linearGradient4296" x1="329.71" x2="395.038" y1="308.829" y2="296.997" gradientTransform="matrix(0.08769582,0,0,0.08769582,22.649212,479.0522)" gradientUnits="userSpaceOnUse" xlink:href="#linearGradient4290"/><linearGradient id="linearGradient4304" x1="278.654" x2="313.229" y1="322.764" y2="374.596" gradientTransform="matrix(0.08769582,0,0,0.08769582,22.649212,479.0522)" gradientUnits="userSpaceOnUse" xlink:href="#linearGradient4298"/><linearGradient id="linearGradient4320" x1="192.234" x2="216.681" y1="321.43" y2="325.937" gradientTransform="matrix(0.08769582,0,0,0.08769582,22.649212,479.0522)" gradientUnits="userSpaceOnUse" xlink:href="#linearGradient4314"/><linearGradient id="linearGradient4328" x1="67.429" x2="155.617" y1="289.472" y2="300.176" gradientTransform="matrix(0.08769582,0,0,0.08769582,22.649212,479.0522)" gradientUnits="userSpaceOnUse" xlink:href="#linearGradient4322"/><linearGradient id="linearGradient4336" x1="240.131" x2="241.286" y1="301.943" y2="320.535" gradientTransform="matrix(0.08769582,0,0,0.08769582,22.649212,479.0522)" gradientUnits="userSpaceOnUse" xlink:href="#linearGradient4330"/><linearGradient id="linearGradient4344" x1="313.056" x2="322.83" y1="295.679" y2="318.778" gradientTransform="matrix(0.08769582,0,0,0.08769582,22.649212,479.0522)" gradientUnits="userSpaceOnUse" xlink:href="#linearGradient4338"/><linearGradient id="linearGradient4352" x1="143.436" x2="156.351" y1="311.71" y2="288.612" gradientTransform="matrix(0.08769582,0,0,0.08769582,22.649212,479.0522)" gradientUnits="userSpaceOnUse" xlink:href="#linearGradient4346"/></defs><metadata id="metadata7"/><g id="layer3" display="inline" transform="translate(-47.459886,-473.46144)"><path id="path3947" fill="#1a1a1a" fill-opacity="1" stroke="none" d="M 491.14085,279.43949 C 501.67492,416.88751 409.33341,534.54067 286.05843,529.43331 166.42459,524.4768 79.869332,405.5733 87.719423,275.28071 94.815226,157.50749 178.1101,67.055569 277.31279,62.208388 378.71026,57.253966 473.51463,142.64506 489.61298,264.76839" filter="url(#filter4107)" opacity=".95" transform="matrix(0.08379823,0,0,0.08379823,46.072201,473.51628)"/><path id="path3892" fill="#1a1a1a" fill-opacity="1" stroke="none" d="M 478.2283,279.31894 C 490.63548,413.63891 408.9727,530.89811 294.56337,531.00371 181.06633,531.10848 92.374739,415.63472 94.374202,283.04295 96.205462,161.60536 174.68153,67.260356 271.13904,62.214941 368.01029,57.147885 459.04318,143.35408 476.5207,264.85108" display="inline" filter="url(#filter3902)" opacity=".95" transform="matrix(0.08379823,0,0,0.08379823,46.072201,473.51628)"/><path id="path3021" fill="#1a1a1a" fill-opacity="1" stroke="none" d="M 450.77855,230.25267 C 477.73433,374.94117 403.43122,532.14426 277.38248,529.5351 155.08498,527.00358 89.446598,374.22479 116.98288,235.38972 137.55038,131.69054 207.18456,61.79884 278.2908,56.893617 350.12692,51.938045 423.65969,113.29741 447.90007,216.56463" display="inline" opacity=".95" transform="matrix(0.08379823,0,0,0.08379823,46.072201,473.51628)"/></g><g id="layer9" display="inline" opacity=".816" transform="translate(-47.459886,-473.46144)"><g id="g4963" transform="matrix(0.08769582,0,0,0.08769582,47.592261,475.02854)"><path id="path3951" fill="#000" fill-opacity="1" fill-rule="nonzero" stroke="none" d="m 297.66285,23.577361 c 0,0 -40.56289,131.424179 -40.56289,131.424179 0,0 173.87648,-29.92683 173.87648,-29.92683 C 399.10523,72.737391 350.94612,35.725869 297.66285,23.577361 Z" display="inline" filter="url(#filter3999)"/><path id="path3953" fill="#000" fill-opacity="1" fill-rule="nonzero" stroke="none" d="m 440.59672,152.99991 c 0,0 -131.25674,27.19003 -131.25674,27.19003 0,0 143.27534,187.92345 143.27534,187.92345 22.95794,-70.89937 17.85139,-149.9969 -12.0186,-215.11348 z" display="inline" filter="url(#filter4245)"/><path id="path3955" fill="#000" fill-opacity="1" fill-rule="nonzero" stroke="none" d="m 434.06352,396.45121 c 0,0 -114.05507,-149.21938 -114.05507,-149.21938 0,0 -69.10042,273.45256 -69.10042,273.45256 76.18045,0.6481 145.35071,-46.63162 183.15549,-124.23318 z" display="inline" filter="url(#filter4007)"/><path id="path3957" fill="#000" fill-opacity="1" fill-rule="nonzero" stroke="none" d="m 217.28302,507.04829 c 0,0 56.45315,-214.89083 56.45315,-214.89083 0,0 -219.032494,48.28455 -219.032494,48.28455 24.30282,83.96972 84.402764,149.6406 162.579344,166.60628 z" display="inline" filter="url(#filter4011)"/><path id="path3959" fill="#000" fill-opacity="1" fill-rule="nonzero" stroke="none" d="m 53.058977,301.03507 c 0,0 163.803383,-37.66408 163.803383,-37.66408 0,0 -114.29114,-171.444746 -114.29114,-171.444746 C 61.940369,145.69994 40.983885,222.2174 53.058977,301.03507 Z" display="inline" filter="url(#filter4015)"/><path id="path3961" fill="#000" fill-opacity="1" fill-rule="nonzero" stroke="none" d="m 124.80067,73.830348 c 0,0 86.28101,119.639272 86.28101,119.639272 0,0 63.5044,-178.114991 63.5044,-178.114991 -52.7206,-4.511253 -107.54122,15.211334 -149.78541,58.475719 z" display="inline" filter="url(#filter4019)"/><circle id="path4249" cx="256" cy="256" r="32" fill="#000" fill-opacity="1" stroke="none" d="m 293.31077,220.16823 c 0.66155,18.63392 -11.75696,34.17946 -27.84441,34.23424 -16.18723,0.0551 -29.25512,-15.57613 -29.1009,-34.41478 0.14989,-18.30934 12.80103,-32.66067 28.17867,-32.51588 15.28758,0.14395 28.12347,14.58046 28.76664,32.69642 z" display="inline" filter="url(#filter4257)"/></g></g><g id="layer2" display="inline" transform="translate(-47.459886,-473.46144)"><g id="g4941" transform="matrix(0.08769582,0,0,0.08769582,47.592261,475.02854)"><path id="path3902" fill="url(#linearGradient3885)" fill-opacity="1" fill-rule="nonzero" stroke="none" d="m 282.2599,23.655811 c 0,0 -35.31742,164.236779 -35.31742,164.236779 0,0 166.96376,-40.6047 166.96376,-40.6047 C 379.74044,83.144478 331.85476,36.539473 282.2599,23.655811 Z" display="inline" filter="url(#filter3903)"/><path id="path3905" fill="url(#linearGradient3907)" fill-opacity="1" fill-rule="nonzero" stroke="none" d="m 424.77681,179.82348 c 0,0 -128.07701,33.87657 -128.07701,33.87657 0,0 142.26092,175.90442 142.26092,175.90442 24.06538,-61.7026 18.12765,-139.17719 -14.18391,-209.78099 z" display="inline" filter="url(#filter3903)"/><path id="path3909" fill="url(#linearGradient3911)" fill-opacity="1" fill-rule="nonzero" stroke="none" d="m 419.81998,412.23408 c 0,0 -112.14879,-130.81375 -112.14879,-130.81375 0,0 -64.8017,215.57113 -64.8017,215.57113 70.99543,2.7394 138.1359,-27.54089 176.95049,-84.75738 z" display="inline" filter="url(#filter3903)"/><path id="path3913" fill="url(#linearGradient3915)" fill-opacity="1" fill-rule="nonzero" stroke="none" d="m 212.04019,487.06636 c 0,0 51.51406,-163.85791 51.51406,-163.85791 0,0 -199.137349,39.85209 -199.137349,39.85209 22.85015,63.87873 77.160489,110.63402 147.623289,124.00582 z" display="inline" filter="url(#filter3903)"/><path id="path3917" fill="url(#linearGradient3919)" fill-opacity="1" fill-rule="nonzero" stroke="none" d="m 62.479756,330.73394 c 0,0 147.466204,-33.42303 147.466204,-33.42303 0,0 -102.16206,-174.96643 -102.16206,-174.96643 -36.829629,61.40401 -56.08442,138.28931 -45.304144,208.38946 z" display="inline" filter="url(#filter3903)"/><path id="path3921" fill="url(#linearGradient3923)" fill-opacity="1" fill-rule="nonzero" stroke="none" d="m 127.74264,99.734001 c 0,0 76.56294,129.981339 76.56294,129.981339 0,0 56.87643,-215.756519 56.87643,-215.756519 -46.91552,-2.176129 -95.28814,28.543172 -133.43937,85.77518 z" display="inline" filter="url(#filter3903)"/><circle id="path4204" cx="256" cy="256" r="32" fill="url(#linearGradient4212)" fill-opacity="1" stroke="none" d="m 281.78034,255.22223 c 0.77808,18.30821 -10.98185,33.28495 -26.26654,33.45148 -15.28469,0.16654 -27.63613,-14.52451 -27.58772,-32.81338 0.0484,-18.28887 11.80835,-33.26561 26.26655,-33.45148 14.45819,-0.18587 26.80963,14.50518 27.58771,32.81338 z"/></g></g><g id="layer6" display="inline" opacity=".5" transform="translate(-47.459886,-473.46144)"><g id="g4952" transform="matrix(0.08769582,0,0,0.08769582,47.592261,475.02854)"><path id="path4023" fill="#fff" fill-opacity="1" fill-rule="nonzero" stroke="none" d="M 266.59756,173.37652 C 316.24309,161.7226 365.40775,151.00037 413.68093,138.83143 386.36768,85.523924 345.51421,45.821643 302.27871,32.378139 c 0,0 -35.68115,140.998381 -35.68115,140.998381 z" display="inline" filter="url(#filter4312)" opacity=".15"/><path id="path4025" fill="#fff" fill-opacity="1" fill-rule="nonzero" stroke="none" d="m 318.8178,220.31243 c 35.16766,51.05257 71.70735,102.58836 111.03212,153.07795 20.707,-54.7757 20.49113,-121.99556 0.66199,-181.51701 0,0 -111.69411,28.43906 -111.69411,28.43906 z" display="inline" filter="url(#filter4320)" opacity=".25"/><path id="path4027" fill="#fff" fill-opacity="1" fill-rule="nonzero" stroke="none" d="m 255.21249,491.10799 c 56.26934,-1.78638 110.34088,-29.75021 145.05965,-76.29536 0,0 -85.63014,-112.24348 -85.63014,-112.24348 0,0 -59.42951,188.53884 -59.42951,188.53884 z" display="inline" filter="url(#filter4336)" opacity=".15"/><path id="path4029" fill="#fff" fill-opacity="1" fill-rule="nonzero" stroke="none" d="m 86.217147,373.12295 c 22.489763,53.55996 67.313553,93.26868 121.101043,106.37114 0,0 46.02739,-141.40725 46.02739,-141.40725 0,0 -167.128433,35.03611 -167.128433,35.03611 z" display="inline" filter="url(#filter4344)" opacity=".15"/><path id="path4031" fill="#fff" fill-opacity="1" fill-rule="nonzero" stroke="none" d="m 111.12221,137.82644 c -28.403856,55.00983 -41.531814,122.53253 -33.106771,182.21468 0,0 121.417461,-28.82169 121.417461,-28.82169 0,0 -87.85318,-154.32073 -87.85318,-154.32073 0,0 -0.45751,0.92774 -0.45751,0.92774 z" display="inline" filter="url(#filter4308)" opacity=".25"/><path id="path4033" fill="#fff" fill-opacity="1" fill-rule="nonzero" stroke="none" d="m 264.30814,20.389649 c -43.29629,1.285328 -87.72998,29.03367 -121.38274,75.308368 0,0 65.63486,113.067393 65.63486,113.067393 0,0 56.18062,-188.410447 56.18062,-188.410447 0,0 -0.43274,0.03469 -0.43274,0.03469 z" display="inline" filter="url(#filter4328)" opacity=".15"/><path id="path4214" fill="#fff" fill-opacity="1" stroke="none" d="m 259.49737,232.57602 c -14.73406,-0.076 -23.96031,27.21633 -12.76273,39.63251 8.57131,11.16978 26.41253,7.67513 30.5257,-7.80959 4.40211,-13.31604 -2.64864,-30.56875 -14.15862,-31.65484 -1.19387,-0.20437 -2.39603,-0.27798 -3.60435,-0.16808 z" display="inline" filter="url(#filter4348)" opacity=".15"/></g></g><g id="layer1" transform="translate(-20.119171,-477.87188)"><path id="path3436" fill="url(#linearGradient4328)" fill-opacity="1" fill-rule="nonzero" stroke="#333" stroke-dasharray="none" stroke-dashoffset="0" stroke-linecap="round" stroke-linejoin="round" stroke-miterlimit="4" stroke-opacity="1" stroke-width=".175" d="m 25.493722,500.47508 c 5.673252,2.41666 11.643005,3.24388 17.814115,4.04219 -0.05239,0.7774 0.419958,1.43279 -0.599587,2.19744 -3.047729,0.62687 -14.299961,1.48217 -17.615735,1.09172 -0.343585,-2.44378 -0.03749,-4.88757 0.401207,-7.33135 z" clip-rule="nonzero" color="#000" color-interpolation="sRGB" color-interpolation-filters="linearRGB" color-rendering="auto" display="inline" enable-background="accumulate" image-rendering="auto" opacity="1" overflow="visible" shape-rendering="auto" text-rendering="auto" visibility="visible" style="isolation:auto;mix-blend-mode:normal;solid-color:#000;solid-opacity:1"/><path id="path3438" fill="url(#linearGradient4296)" fill-opacity="1" fill-rule="nonzero" stroke="#333" stroke-dasharray="none" stroke-dashoffset="0" stroke-linecap="round" stroke-linejoin="round" stroke-miterlimit="4" stroke-opacity="1" stroke-width=".175" d="m 60.099643,500.98888 c -2.993787,1.82495 -4.384905,3.45198 -15.958428,3.38436 l 0.271738,2.32213 c 4.465258,1.23876 10.312758,1.03084 16.131352,0.56818 0.259853,-2.09156 0.08582,-4.18312 -0.444662,-6.27467 z" clip-rule="nonzero" color="#000" color-interpolation="sRGB" color-interpolation-filters="linearRGB" color-rendering="auto" display="inline" enable-background="accumulate" image-rendering="auto" opacity="1" overflow="visible" shape-rendering="auto" text-rendering="auto" visibility="visible" style="isolation:auto;mix-blend-mode:normal;solid-color:#000;solid-opacity:1"/><path id="path4282" fill="url(#linearGradient4304)" fill-opacity="1" fill-rule="nonzero" stroke="#333" stroke-dasharray="none" stroke-dashoffset="0" stroke-linecap="round" stroke-linejoin="round" stroke-miterlimit="4" stroke-opacity="1" stroke-width=".175" d="m 47.859955,506.56728 c 4.182293,0.39262 4.945036,6.16252 7.111133,7.87197 -0.986057,0.0696 -2.752626,-0.76176 -3.926269,-1.11516 -0.07976,0.75408 -0.332446,3.02991 -0.412205,3.91398 -1.503247,-1.47092 -2.571763,-8.30246 -5.484644,-10.32143 z" clip-rule="nonzero" color="#000" color-interpolation="sRGB" color-interpolation-filters="linearRGB" color-rendering="auto" display="inline" enable-background="accumulate" image-rendering="auto" opacity="1" overflow="visible" shape-rendering="auto" text-rendering="auto" visibility="visible" style="isolation:auto;mix-blend-mode:normal;solid-color:#000;solid-opacity:1"/><path id="path4270" fill="#eee" fill-opacity="1" fill-rule="nonzero" stroke="#333" stroke-dasharray="none" stroke-dashoffset="0" stroke-linecap="round" stroke-linejoin="round" stroke-miterlimit="4" stroke-opacity="1" stroke-width=".175" d="m 45.384517,504.24257 c 2.334787,-1.62626 6.411838,-4.40272 8.392631,-3.50086 1.466116,1.22384 1.89195,2.4154 1.887823,3.72588 l -10.464505,2.69989 c -0.171808,-1.0036 -0.349103,-1.92131 0.184051,-2.92491 z" clip-rule="nonzero" color="#000" color-interpolation="sRGB" color-interpolation-filters="linearRGB" color-rendering="auto" display="inline" enable-background="accumulate" image-rendering="auto" opacity="1" overflow="visible" shape-rendering="auto" text-rendering="auto" visibility="visible" style="isolation:auto;mix-blend-mode:normal;solid-color:#000;solid-opacity:1"/><path id="path4268" fill="url(#linearGradient4344)" fill-opacity="1" fill-rule="nonzero" stroke="#333" stroke-dasharray="none" stroke-dashoffset="0" stroke-linecap="round" stroke-linejoin="round" stroke-miterlimit="4" stroke-opacity="1" stroke-width=".175" d="m 45.200466,507.16748 c 5.489927,-2.66626 10.962833,-3.4641 10.428287,-2.59155 -1.589746,2.59496 -7.388891,2.74375 -10.428287,2.59155 z" clip-rule="nonzero" color="#000" color-interpolation="sRGB" color-interpolation-filters="linearRGB" color-rendering="auto" display="inline" enable-background="accumulate" image-rendering="auto" opacity="1" overflow="visible" shape-rendering="auto" text-rendering="auto" visibility="visible" style="isolation:auto;mix-blend-mode:normal;solid-color:#000;solid-opacity:1"/><path id="path4278" fill="#eee" fill-opacity="1" fill-rule="nonzero" stroke="#333" stroke-dasharray="none" stroke-dashoffset="0" stroke-linecap="round" stroke-linejoin="round" stroke-miterlimit="4" stroke-opacity="1" stroke-width=".175" d="m 42.323522,503.99183 c -2.383436,-1.5541 -6.5435,-4.20456 -8.495781,-3.24253 -1.427998,1.2681 -1.817189,2.47214 -1.772982,3.78188 l 10.542187,2.37854 c 0.141033,-1.00837 0.290176,-1.93108 -0.273424,-2.91789 z" clip-rule="nonzero" color="#000" color-interpolation="sRGB" color-interpolation-filters="linearRGB" color-rendering="auto" display="inline" enable-background="accumulate" image-rendering="auto" opacity="1" overflow="visible" shape-rendering="auto" text-rendering="auto" visibility="visible" style="isolation:auto;mix-blend-mode:normal;solid-color:#000;solid-opacity:1"/><path id="path4280" fill="url(#linearGradient4352)" fill-opacity="1" fill-rule="nonzero" stroke="#333" stroke-dasharray="none" stroke-dashoffset="0" stroke-linecap="round" stroke-linejoin="round" stroke-miterlimit="4" stroke-opacity="1" stroke-width=".175" d="m 42.596946,506.90972 c -5.568908,-2.49707 -11.063655,-3.12716 -10.502672,-2.27137 1.66837,2.54513 7.469353,2.51648 10.502672,2.27137 z" clip-rule="nonzero" color="#000" color-interpolation="sRGB" color-interpolation-filters="linearRGB" color-rendering="auto" display="inline" enable-background="accumulate" image-rendering="auto" opacity="1" overflow="visible" shape-rendering="auto" text-rendering="auto" visibility="visible" style="isolation:auto;mix-blend-mode:normal;solid-color:#000;solid-opacity:1"/><path id="path4284" fill="url(#linearGradient4320)" fill-opacity="1" fill-rule="nonzero" stroke="#333" stroke-dasharray="none" stroke-dashoffset="0" stroke-linecap="round" stroke-linejoin="round" stroke-miterlimit="4" stroke-opacity="1" stroke-width=".175" d="m 42.569264,504.67378 c -4.332859,1.33152 -7.429922,8.42943 -9.44655,10.31288 0.988432,-0.0125 2.679843,-0.98776 3.820077,-1.43742 0.14212,0.74485 0.582956,2.99182 0.735871,3.86621 1.375881,-1.59069 1.873289,-8.48738 4.608413,-10.7413 0.901183,-0.86442 0.352929,-1.13596 0.282189,-2.00037 z" clip-rule="nonzero" color="#000" color-interpolation="sRGB" color-interpolation-filters="linearRGB" color-rendering="auto" display="inline" enable-background="accumulate" image-rendering="auto" opacity="1" overflow="visible" shape-rendering="auto" text-rendering="auto" visibility="visible" style="isolation:auto;mix-blend-mode:normal;solid-color:#000;solid-opacity:1"/><path id="path4245" fill="url(#linearGradient4336)" fill-opacity="1" fill-rule="nonzero" stroke="#333" stroke-dasharray="none" stroke-dashoffset="0" stroke-linecap="round" stroke-linejoin="round" stroke-miterlimit="4" stroke-opacity="1" stroke-width=".175" d="m 42.288455,503.85447 c 0.632268,-0.26617 0.824093,0.20246 1.639924,0.21056 0.740342,0.007 1.105437,-0.34196 1.769152,-0.087 -0.512359,1.15323 -0.637259,2.31193 -0.172923,3.33497 -1.151393,0.22271 -2.324931,0.31254 -3.606704,-0.24703 0.78303,-1.02108 0.622348,-2.19039 0.370551,-3.21146 z" clip-rule="nonzero" color="#000" color-interpolation="sRGB" color-interpolation-filters="linearRGB" color-rendering="auto" display="inline" enable-background="accumulate" image-rendering="auto" opacity="1" overflow="visible" shape-rendering="auto" text-rendering="auto" visibility="visible" style="isolation:auto;mix-blend-mode:normal;solid-color:#000;solid-opacity:1"/></g></svg>